<mxfile host="app.diagrams.net" modified="2021-02-02T07:59:16.887Z" agent="5.0 (Windows NT 10.0; Win64; x64) AppleWebKit/537.36 (KHTML, like Gecko) Chrome/88.0.4324.104 Safari/537.36" etag="BRziDYAGmMHwqclqIrQ8" version="14.0.0" type="github">
  <diagram id="o5UgiVsL8vbvj8nnpHUy" name="Page-1">
    <mxGraphModel dx="521" dy="492" grid="1" gridSize="10" guides="1" tooltips="1" connect="1" arrows="1" fold="1" page="1" pageScale="1" pageWidth="827" pageHeight="1169" math="0" shadow="0">
      <root>
        <mxCell id="0" />
        <mxCell id="1" parent="0" />
        <mxCell id="HR3-atsbOAEVgenClyhm-1" value="" style="verticalLabelPosition=bottom;verticalAlign=top;html=1;shadow=0;dashed=0;strokeWidth=1;shape=mxgraph.android.phone2;strokeColor=#c0c0c0;" vertex="1" parent="1">
          <mxGeometry x="310" y="130" width="200" height="410" as="geometry" />
        </mxCell>
        <mxCell id="HR3-atsbOAEVgenClyhm-2" value="" style="strokeWidth=1;html=1;shadow=0;dashed=0;shape=mxgraph.android.rrect;rSize=0;strokeColor=#FFFFFF;" vertex="1" parent="1">
          <mxGeometry x="317.5" y="195" width="185" height="243" as="geometry" />
        </mxCell>
        <mxCell id="HR3-atsbOAEVgenClyhm-3" value="&lt;b&gt;&lt;font style=&quot;font-size: 9px&quot;&gt;Parcheggio Saba Villa Borghese&lt;br&gt;&lt;/font&gt;&lt;/b&gt;&lt;br&gt;Viale del Galoppatoio, 33&amp;nbsp;&lt;br&gt;&lt;br&gt;1KM&lt;br&gt;&lt;div style=&quot;text-align: center&quot;&gt;&lt;br&gt;&lt;/div&gt;" style="strokeColor=inherit;fillColor=inherit;gradientColor=inherit;strokeWidth=1;html=1;shadow=0;dashed=0;shape=mxgraph.android.rrect;rSize=0;align=left;spacingLeft=10;fontSize=8;fontColor=#333333;" vertex="1" parent="HR3-atsbOAEVgenClyhm-2">
          <mxGeometry width="185" height="94.281" as="geometry" />
        </mxCell>
        <mxCell id="HR3-atsbOAEVgenClyhm-4" value="&lt;b style=&quot;font-size: 9px&quot;&gt;Parcheggio Colonna&lt;br&gt;&lt;br&gt;&lt;/b&gt;Via Santa Maria, 11-13&lt;br&gt;&lt;br&gt;500 m" style="strokeColor=inherit;fillColor=inherit;gradientColor=inherit;strokeWidth=1;html=1;shadow=0;dashed=0;shape=mxgraph.android.rrect;rSize=0;align=left;spacingLeft=10;fontSize=8;fontColor=#333333;" vertex="1" parent="HR3-atsbOAEVgenClyhm-2">
          <mxGeometry y="87.29809523809523" width="185" height="69.84476190476191" as="geometry" />
        </mxCell>
        <mxCell id="HR3-atsbOAEVgenClyhm-5" value="&lt;b&gt;&lt;font style=&quot;font-size: 9px&quot;&gt;Parcheggio Sant&#39;Agata&lt;br&gt;&lt;/font&gt;&lt;/b&gt;&lt;br&gt;Via di Sant&#39;Agata de Goti, 19&amp;nbsp;&lt;br&gt;&lt;br&gt;100 m" style="strokeColor=inherit;fillColor=inherit;gradientColor=inherit;strokeWidth=1;html=1;shadow=0;dashed=0;shape=mxgraph.android.rrect;rSize=0;align=left;spacingLeft=10;fontSize=8;fontColor=#333333;" vertex="1" parent="HR3-atsbOAEVgenClyhm-2">
          <mxGeometry y="157.14" width="185" height="72.86" as="geometry" />
        </mxCell>
        <mxCell id="HR3-atsbOAEVgenClyhm-17" value="" style="verticalLabelPosition=bottom;shadow=0;dashed=0;verticalAlign=top;strokeWidth=2;html=1;shape=mxgraph.mockup.misc.shareIcon;" vertex="1" parent="HR3-atsbOAEVgenClyhm-2">
          <mxGeometry x="152.5" y="55" width="20" height="20" as="geometry" />
        </mxCell>
        <mxCell id="HR3-atsbOAEVgenClyhm-18" value="" style="verticalLabelPosition=bottom;shadow=0;dashed=0;verticalAlign=top;strokeWidth=2;html=1;shape=mxgraph.mockup.misc.shareIcon;" vertex="1" parent="HR3-atsbOAEVgenClyhm-2">
          <mxGeometry x="152.5" y="125" width="20" height="20" as="geometry" />
        </mxCell>
        <mxCell id="HR3-atsbOAEVgenClyhm-19" value="" style="verticalLabelPosition=bottom;shadow=0;dashed=0;verticalAlign=top;strokeWidth=2;html=1;shape=mxgraph.mockup.misc.shareIcon;" vertex="1" parent="HR3-atsbOAEVgenClyhm-2">
          <mxGeometry x="152.5" y="205" width="20" height="20" as="geometry" />
        </mxCell>
        <mxCell id="HR3-atsbOAEVgenClyhm-27" value="" style="shape=image;html=1;verticalAlign=top;verticalLabelPosition=bottom;labelBackgroundColor=#ffffff;imageAspect=0;aspect=fixed;image=https://cdn0.iconfinder.com/data/icons/mobile-basic-vol-1/32/Chevron_Bottom-128.png;strokeColor=#FFFFFF;fillColor=#ffffff;gradientColor=#FFFFFF;rotation=-180;" vertex="1" parent="HR3-atsbOAEVgenClyhm-2">
          <mxGeometry x="122.5" y="50" width="30" height="30" as="geometry" />
        </mxCell>
      </root>
    </mxGraphModel>
  </diagram>
</mxfile>
